<svg width="17" height="17" viewBox="0 0 17 17" fill="none" xmlns="http://www.w3.org/2000/svg">
<path fill-rule="evenodd" clip-rule="evenodd" d="M16.66 8.69323C16.66 8.0905 16.6059 7.51095 16.5055 6.95459H8.5V10.2425H13.0746C12.8775 11.3051 12.2786 12.2053 11.3784 12.808V14.9407H14.1255C15.7327 13.461 16.66 11.2819 16.66 8.69323Z" fill="#4285F4"/>
<path fill-rule="evenodd" clip-rule="evenodd" d="M8.50022 17C10.7952 17 12.7193 16.2389 14.1257 14.9407L11.3786 12.8079C10.6175 13.3179 9.64386 13.6193 8.50022 13.6193C6.28635 13.6193 4.41248 12.1241 3.74407 10.115H0.904297V12.3173C2.30294 15.0952 5.17749 17 8.50022 17Z" fill="#34A853"/>
<path fill-rule="evenodd" clip-rule="evenodd" d="M3.74387 10.115C3.57387 9.60502 3.47728 9.06025 3.47728 8.50002C3.47728 7.93979 3.57387 7.39502 3.74387 6.88502V4.68274H0.904092C0.32841 5.83024 0 7.12842 0 8.50002C0 9.87161 0.32841 11.1698 0.904092 12.3173L3.74387 10.115Z" fill="#FBBC05"/>
<path fill-rule="evenodd" clip-rule="evenodd" d="M8.50022 3.38069C9.74817 3.38069 10.8686 3.80955 11.7495 4.65183L14.1875 2.21387C12.7155 0.842274 10.7914 0 8.50022 0C5.17748 0 2.30294 1.90478 0.904297 4.68274L3.74407 6.88501C4.41248 4.87592 6.28635 3.38069 8.50022 3.38069Z" fill="#EA4335"/>
</svg>
