<svg width="200" height="32" viewBox="0 0 200 32" fill="none" xmlns="http://www.w3.org/2000/svg">
<path d="M20.1424 0.843087L16.9853 0L14.3248 9.89565L11.9228 0.961791L8.76555 1.80488L11.3608 11.4573L4.8967 5.01518L2.58549 7.31854L9.67576 14.3848L0.845959 12.0269L0 15.1733L9.64767 17.7496C9.53721 17.2748 9.47877 16.7801 9.47877 16.2717C9.47877 12.6737 12.4055 9.75685 16.0159 9.75685C19.6262 9.75685 22.5529 12.6737 22.5529 16.2717C22.5529 16.7768 22.4952 17.2685 22.3861 17.7405L31.1541 20.0818L32 16.9354L22.314 14.3489L31.1444 11.9908L30.2984 8.84437L20.6128 11.4308L27.0768 4.98873L24.7656 2.68538L17.7737 9.65357L20.1424 0.843087Z" fill="#A041E4"/>
<path d="M22.3772 17.7771C22.1065 18.9176 21.5351 19.9421 20.751 20.763L27.103 27.0935L29.4142 24.7901L22.3772 17.7771Z" fill="#A041E4"/>
<path d="M20.6867 20.8293C19.8931 21.6371 18.8902 22.2399 17.7656 22.5505L20.077 31.1473L23.2341 30.3042L20.6867 20.8293Z" fill="#A041E4"/>
<path d="M17.6483 22.5818C17.1265 22.7155 16.5796 22.7866 16.016 22.7866C15.4122 22.7866 14.8275 22.705 14.2724 22.5522L11.959 31.1569L15.1161 31.9999L17.6483 22.5818Z" fill="#A041E4"/>
<path d="M14.1603 22.5206C13.0529 22.1945 12.0678 21.584 11.2905 20.7739L4.92285 27.1199L7.23405 29.4233L14.1603 22.5206Z" fill="#A041E4"/>
<path d="M11.2375 20.7178C10.4735 19.9026 9.91694 18.8917 9.65204 17.7688L0.855469 20.1178L1.70142 23.2642L11.2375 20.7178Z" fill="#A041E4"/>
<path d="M46.0446 25V7.54545H57.3968V10.196H49.2065V14.9347H56.8088V17.5852H49.2065V22.3494H57.465V25H46.0446ZM69.8729 15.3693L67.0604 15.6761C66.9809 15.392 66.8417 15.125 66.6428 14.875C66.4496 14.625 66.1883 14.4233 65.8587 14.2699C65.5292 14.1165 65.1258 14.0398 64.6485 14.0398C64.0064 14.0398 63.4667 14.179 63.0292 14.4574C62.5973 14.7358 62.3843 15.0966 62.39 15.5398C62.3843 15.9205 62.5235 16.2301 62.8076 16.4688C63.0973 16.7074 63.5746 16.9034 64.2394 17.0568L66.4723 17.5341C67.711 17.8011 68.6314 18.2244 69.2337 18.804C69.8417 19.3835 70.1485 20.142 70.1542 21.0795C70.1485 21.9034 69.907 22.6307 69.4297 23.2614C68.9581 23.8864 68.3019 24.375 67.461 24.7273C66.6201 25.0795 65.6542 25.2557 64.5633 25.2557C62.961 25.2557 61.6712 24.9205 60.6939 24.25C59.7167 23.5739 59.1343 22.6335 58.9468 21.429L61.9553 21.1392C62.0917 21.7301 62.3814 22.1761 62.8246 22.4773C63.2678 22.7784 63.8445 22.929 64.5547 22.929C65.2877 22.929 65.8758 22.7784 66.3189 22.4773C66.7678 22.1761 66.9922 21.804 66.9922 21.3608C66.9922 20.9858 66.8473 20.6761 66.5576 20.4318C66.2735 20.1875 65.8303 20 65.228 19.8693L62.9951 19.4006C61.7394 19.1392 60.8104 18.6989 60.2081 18.0795C59.6059 17.4545 59.3076 16.6648 59.3133 15.7102C59.3076 14.9034 59.5263 14.2045 59.9695 13.6136C60.4184 13.017 61.0405 12.5568 61.836 12.233C62.6371 11.9034 63.5604 11.7386 64.6059 11.7386C66.14 11.7386 67.3473 12.0653 68.228 12.7188C69.1144 13.3722 69.6627 14.2557 69.8729 15.3693ZM71.7382 29.9091V11.9091H74.7723V14.0739H74.9513C75.1104 13.7557 75.3348 13.4176 75.6246 13.0597C75.9143 12.696 76.3064 12.3864 76.8007 12.1307C77.295 11.8693 77.9257 11.7386 78.6927 11.7386C79.7041 11.7386 80.616 11.9972 81.4285 12.5142C82.2467 13.0256 82.8944 13.7841 83.3717 14.7898C83.8547 15.7898 84.0961 17.017 84.0961 18.4716C84.0961 19.9091 83.8604 21.1307 83.3888 22.1364C82.9172 23.142 82.2751 23.9091 81.4626 24.4375C80.6501 24.9659 79.7297 25.2301 78.7013 25.2301C77.9513 25.2301 77.3291 25.1051 76.8348 24.8551C76.3405 24.6051 75.9427 24.304 75.6416 23.9517C75.3461 23.5937 75.116 23.2557 74.9513 22.9375H74.8234V29.9091H71.7382ZM74.7638 18.4545C74.7638 19.3011 74.8831 20.0426 75.1217 20.679C75.366 21.3153 75.7155 21.8125 76.17 22.1705C76.6302 22.5227 77.1871 22.6989 77.8405 22.6989C78.5223 22.6989 79.0933 22.517 79.5535 22.1534C80.0138 21.7841 80.3604 21.2812 80.5933 20.6449C80.8319 20.0028 80.9513 19.2727 80.9513 18.4545C80.9513 17.642 80.8348 16.9205 80.6018 16.2898C80.3689 15.6591 80.0223 15.1648 79.5621 14.8068C79.1018 14.4489 78.528 14.2699 77.8405 14.2699C77.1814 14.2699 76.6217 14.4432 76.1615 14.7898C75.7013 15.1364 75.3518 15.6222 75.1132 16.2472C74.8802 16.8722 74.7638 17.608 74.7638 18.4545ZM89.5452 25.2642C88.7157 25.2642 87.9685 25.1165 87.3038 24.821C86.6447 24.5199 86.1219 24.0767 85.7356 23.4915C85.3549 22.9062 85.1646 22.1847 85.1646 21.3267C85.1646 20.5881 85.3009 19.9773 85.5736 19.4943C85.8464 19.0114 86.2185 18.625 86.6901 18.3352C87.1617 18.0455 87.693 17.8267 88.2839 17.679C88.8805 17.5256 89.4969 17.4148 90.1333 17.3466C90.9004 17.267 91.5225 17.196 91.9998 17.1335C92.4771 17.0653 92.8236 16.9631 93.0396 16.8267C93.2611 16.6847 93.3719 16.4659 93.3719 16.1705V16.1193C93.3719 15.4773 93.1816 14.9801 92.8009 14.6278C92.4202 14.2756 91.8719 14.0994 91.156 14.0994C90.4004 14.0994 89.8009 14.2642 89.3577 14.5938C88.9202 14.9233 88.6248 15.3125 88.4714 15.7614L85.5907 15.3523C85.818 14.5568 86.193 13.892 86.7157 13.358C87.2384 12.8182 87.8776 12.4148 88.6333 12.1477C89.389 11.875 90.2242 11.7386 91.139 11.7386C91.7697 11.7386 92.3975 11.8125 93.0225 11.9602C93.6475 12.108 94.2185 12.3523 94.7356 12.6932C95.2526 13.0284 95.6674 13.4858 95.9799 14.0653C96.2981 14.6449 96.4572 15.3693 96.4572 16.2386V25H93.4913V23.2017H93.389C93.2015 23.5653 92.9373 23.9062 92.5964 24.2244C92.2611 24.5369 91.8379 24.7898 91.3265 24.983C90.8208 25.1705 90.2271 25.2642 89.5452 25.2642ZM90.3464 22.9972C90.9657 22.9972 91.5026 22.875 91.9572 22.6307C92.4117 22.3807 92.7611 22.0511 93.0055 21.642C93.2555 21.233 93.3805 20.7869 93.3805 20.304V18.7614C93.2839 18.8409 93.1191 18.9148 92.8861 18.983C92.6589 19.0511 92.4032 19.1108 92.1191 19.1619C91.835 19.2131 91.5538 19.2585 91.2754 19.2983C90.9969 19.3381 90.7555 19.3722 90.5509 19.4006C90.0907 19.4631 89.6788 19.5653 89.3151 19.7074C88.9515 19.8494 88.6646 20.0483 88.4543 20.304C88.2441 20.554 88.139 20.8778 88.139 21.2756C88.139 21.8438 88.3464 22.2727 88.7611 22.5625C89.1759 22.8523 89.7043 22.9972 90.3464 22.9972ZM104.31 25.2557C103.003 25.2557 101.881 24.9688 100.943 24.3949C100.011 23.821 99.2926 23.0284 98.7869 22.017C98.2869 21 98.0369 19.8295 98.0369 18.5057C98.0369 17.1761 98.2926 16.0028 98.804 14.9858C99.3154 13.9631 100.037 13.1676 100.969 12.5994C101.906 12.0256 103.014 11.7386 104.293 11.7386C105.355 11.7386 106.295 11.9347 107.114 12.3267C107.938 12.7131 108.594 13.2614 109.082 13.9716C109.571 14.6761 109.849 15.5 109.918 16.4432H106.969C106.849 15.8125 106.565 15.2869 106.116 14.8665C105.673 14.4403 105.08 14.2273 104.335 14.2273C103.705 14.2273 103.151 14.3977 102.673 14.7386C102.196 15.0739 101.824 15.5568 101.557 16.1875C101.295 16.8182 101.165 17.5739 101.165 18.4545C101.165 19.3466 101.295 20.1136 101.557 20.7557C101.818 21.392 102.185 21.8835 102.656 22.2301C103.134 22.571 103.693 22.7415 104.335 22.7415C104.79 22.7415 105.196 22.6562 105.554 22.4858C105.918 22.3097 106.222 22.0568 106.466 21.7273C106.71 21.3977 106.878 20.9972 106.969 20.5256H109.918C109.844 21.4517 109.571 22.2727 109.099 22.9886C108.628 23.6989 107.986 24.2557 107.173 24.6591C106.361 25.0568 105.406 25.2557 104.31 25.2557ZM103.423 24.9318H105.094L104.957 25.6562C105.491 25.7358 105.943 25.9403 106.313 26.2699C106.688 26.6051 106.875 27.0852 106.875 27.7102C106.881 28.517 106.52 29.1648 105.793 29.6534C105.065 30.142 104.028 30.3864 102.682 30.3864L102.648 28.8693C103.301 28.8693 103.821 28.7813 104.207 28.6051C104.594 28.4347 104.79 28.1619 104.795 27.7869C104.807 27.4233 104.67 27.1563 104.386 26.9858C104.108 26.821 103.665 26.7074 103.057 26.6449L103.423 24.9318ZM117.201 25.2557C115.923 25.2557 114.815 24.9744 113.877 24.4119C112.94 23.8494 112.213 23.0625 111.696 22.0511C111.184 21.0398 110.929 19.858 110.929 18.5057C110.929 17.1534 111.184 15.9687 111.696 14.9517C112.213 13.9347 112.94 13.1449 113.877 12.5824C114.815 12.0199 115.923 11.7386 117.201 11.7386C118.48 11.7386 119.588 12.0199 120.525 12.5824C121.463 13.1449 122.187 13.9347 122.698 14.9517C123.215 15.9687 123.474 17.1534 123.474 18.5057C123.474 19.858 123.215 21.0398 122.698 22.0511C122.187 23.0625 121.463 23.8494 120.525 24.4119C119.588 24.9744 118.48 25.2557 117.201 25.2557ZM117.218 22.7841C117.911 22.7841 118.491 22.5937 118.957 22.2131C119.423 21.8267 119.769 21.3097 119.997 20.6619C120.23 20.0142 120.346 19.2926 120.346 18.4972C120.346 17.696 120.23 16.9716 119.997 16.3239C119.769 15.6705 119.423 15.1506 118.957 14.7642C118.491 14.3778 117.911 14.1847 117.218 14.1847C116.508 14.1847 115.917 14.3778 115.446 14.7642C114.98 15.1506 114.63 15.6705 114.397 16.3239C114.17 16.9716 114.056 17.696 114.056 18.4972C114.056 19.2926 114.17 20.0142 114.397 20.6619C114.63 21.3097 114.98 21.8267 115.446 22.2131C115.917 22.5937 116.508 22.7841 117.218 22.7841ZM144.606 7.54545V25H141.793L133.569 13.1108H133.424V25H130.262V7.54545H133.092L141.308 19.4432H141.461V7.54545H144.606ZM152.648 30.1818C151.54 30.1818 150.588 30.0313 149.793 29.7301C148.997 29.4347 148.358 29.0369 147.875 28.5369C147.392 28.0369 147.057 27.483 146.87 26.875L149.648 26.2017C149.773 26.4574 149.955 26.7102 150.193 26.9602C150.432 27.2159 150.753 27.4261 151.156 27.5909C151.566 27.7614 152.08 27.8466 152.699 27.8466C153.574 27.8466 154.299 27.6335 154.872 27.2074C155.446 26.7869 155.733 26.0938 155.733 25.1278V22.6477H155.58C155.421 22.9659 155.188 23.2926 154.881 23.6278C154.58 23.9631 154.179 24.2443 153.679 24.4716C153.185 24.6989 152.563 24.8125 151.813 24.8125C150.807 24.8125 149.895 24.5767 149.077 24.1051C148.264 23.6278 147.617 22.9176 147.134 21.9744C146.656 21.0256 146.418 19.8381 146.418 18.4119C146.418 16.9744 146.656 15.7614 147.134 14.7727C147.617 13.7784 148.267 13.0256 149.085 12.5142C149.904 11.9972 150.816 11.7386 151.821 11.7386C152.588 11.7386 153.219 11.8693 153.713 12.1307C154.213 12.3864 154.611 12.696 154.906 13.0597C155.202 13.4176 155.426 13.7557 155.58 14.0739H155.75V11.9091H158.793V25.2131C158.793 26.3324 158.526 27.2585 157.992 27.9915C157.458 28.7244 156.727 29.2727 155.801 29.6364C154.875 30 153.824 30.1818 152.648 30.1818ZM152.674 22.392C153.327 22.392 153.884 22.233 154.344 21.9148C154.804 21.5966 155.154 21.1392 155.392 20.5426C155.631 19.946 155.75 19.2301 155.75 18.3949C155.75 17.571 155.631 16.8494 155.392 16.2301C155.159 15.6108 154.813 15.1307 154.352 14.7898C153.898 14.4432 153.338 14.2699 152.674 14.2699C151.986 14.2699 151.412 14.4489 150.952 14.8068C150.492 15.1648 150.145 15.6562 149.912 16.2812C149.679 16.9006 149.563 17.6051 149.563 18.3949C149.563 19.196 149.679 19.8977 149.912 20.5C150.151 21.0966 150.5 21.5625 150.96 21.8977C151.426 22.2273 151.997 22.392 152.674 22.392ZM164.762 25.2642C163.932 25.2642 163.185 25.1165 162.52 24.821C161.861 24.5199 161.339 24.0767 160.952 23.4915C160.571 22.9062 160.381 22.1847 160.381 21.3267C160.381 20.5881 160.517 19.9773 160.79 19.4943C161.063 19.0114 161.435 18.625 161.907 18.3352C162.378 18.0455 162.91 17.8267 163.5 17.679C164.097 17.5256 164.714 17.4148 165.35 17.3466C166.117 17.267 166.739 17.196 167.216 17.1335C167.694 17.0653 168.04 16.9631 168.256 16.8267C168.478 16.6847 168.589 16.4659 168.589 16.1705V16.1193C168.589 15.4773 168.398 14.9801 168.017 14.6278C167.637 14.2756 167.089 14.0994 166.373 14.0994C165.617 14.0994 165.017 14.2642 164.574 14.5938C164.137 14.9233 163.841 15.3125 163.688 15.7614L160.807 15.3523C161.035 14.5568 161.41 13.892 161.932 13.358C162.455 12.8182 163.094 12.4148 163.85 12.1477C164.606 11.875 165.441 11.7386 166.356 11.7386C166.986 11.7386 167.614 11.8125 168.239 11.9602C168.864 12.108 169.435 12.3523 169.952 12.6932C170.469 13.0284 170.884 13.4858 171.196 14.0653C171.515 14.6449 171.674 15.3693 171.674 16.2386V25H168.708V23.2017H168.606C168.418 23.5653 168.154 23.9062 167.813 24.2244C167.478 24.5369 167.054 24.7898 166.543 24.983C166.037 25.1705 165.444 25.2642 164.762 25.2642ZM165.563 22.9972C166.182 22.9972 166.719 22.875 167.174 22.6307C167.628 22.3807 167.978 22.0511 168.222 21.642C168.472 21.233 168.597 20.7869 168.597 20.304V18.7614C168.5 18.8409 168.336 18.9148 168.103 18.983C167.875 19.0511 167.62 19.1108 167.336 19.1619C167.052 19.2131 166.77 19.2585 166.492 19.2983C166.214 19.3381 165.972 19.3722 165.767 19.4006C165.307 19.4631 164.895 19.5653 164.532 19.7074C164.168 19.8494 163.881 20.0483 163.671 20.304C163.461 20.554 163.356 20.8778 163.356 21.2756C163.356 21.8438 163.563 22.2727 163.978 22.5625C164.392 22.8523 164.921 22.9972 165.563 22.9972ZM176.901 17.3295V25H173.816V11.9091H176.765V14.1335H176.918C177.219 13.4006 177.7 12.8182 178.359 12.3864C179.023 11.9545 179.844 11.7386 180.822 11.7386C181.725 11.7386 182.512 11.9318 183.182 12.3182C183.859 12.7045 184.381 13.2642 184.751 13.9972C185.126 14.7301 185.31 15.6193 185.305 16.6648V25H182.219V17.142C182.219 16.267 181.992 15.5824 181.538 15.0881C181.089 14.5937 180.467 14.3466 179.671 14.3466C179.131 14.3466 178.651 14.4659 178.231 14.7045C177.816 14.9375 177.489 15.2756 177.251 15.7188C177.018 16.1619 176.901 16.6989 176.901 17.3295ZM191.248 25.2642C190.419 25.2642 189.671 25.1165 189.007 24.821C188.347 24.5199 187.825 24.0767 187.438 23.4915C187.058 22.9062 186.867 22.1847 186.867 21.3267C186.867 20.5881 187.004 19.9773 187.276 19.4943C187.549 19.0114 187.921 18.625 188.393 18.3352C188.865 18.0455 189.396 17.8267 189.987 17.679C190.583 17.5256 191.2 17.4148 191.836 17.3466C192.603 17.267 193.225 17.196 193.703 17.1335C194.18 17.0653 194.526 16.9631 194.742 16.8267C194.964 16.6847 195.075 16.4659 195.075 16.1705V16.1193C195.075 15.4773 194.884 14.9801 194.504 14.6278C194.123 14.2756 193.575 14.0994 192.859 14.0994C192.103 14.0994 191.504 14.2642 191.061 14.5938C190.623 14.9233 190.328 15.3125 190.174 15.7614L187.294 15.3523C187.521 14.5568 187.896 13.892 188.419 13.358C188.941 12.8182 189.58 12.4148 190.336 12.1477C191.092 11.875 191.927 11.7386 192.842 11.7386C193.472 11.7386 194.1 11.8125 194.725 11.9602C195.35 12.108 195.921 12.3523 196.438 12.6932C196.955 13.0284 197.37 13.4858 197.683 14.0653C198.001 14.6449 198.16 15.3693 198.16 16.2386V25H195.194V23.2017H195.092C194.904 23.5653 194.64 23.9062 194.299 24.2244C193.964 24.5369 193.541 24.7898 193.029 24.983C192.524 25.1705 191.93 25.2642 191.248 25.2642ZM192.049 22.9972C192.669 22.9972 193.205 22.875 193.66 22.6307C194.115 22.3807 194.464 22.0511 194.708 21.642C194.958 21.233 195.083 20.7869 195.083 20.304V18.7614C194.987 18.8409 194.822 18.9148 194.589 18.983C194.362 19.0511 194.106 19.1108 193.822 19.1619C193.538 19.2131 193.257 19.2585 192.978 19.2983C192.7 19.3381 192.458 19.3722 192.254 19.4006C191.794 19.4631 191.382 19.5653 191.018 19.7074C190.654 19.8494 190.367 20.0483 190.157 20.304C189.947 20.554 189.842 20.8778 189.842 21.2756C189.842 21.8438 190.049 22.2727 190.464 22.5625C190.879 22.8523 191.407 22.9972 192.049 22.9972Z" fill="#232323"/>
</svg>
